<svg width="200" height="52" viewBox="0 0 200 52" fill="none" xmlns="http://www.w3.org/2000/svg">
<g clip-path="url(#clip0_0_379)">
<path d="M0.237305 51.1114H3.16239V47.9127H4.78276C7.23962 47.9127 8.88626 46.466 8.88626 44.1459C8.88626 41.8521 7.28171 40.3369 4.88798 40.3369H0.237305V51.1114ZM3.16239 45.64V42.6728H4.19353C5.21942 42.6728 5.83495 43.22 5.83495 44.1459C5.83495 45.0665 5.21942 45.64 4.19353 45.64H3.16239Z" fill="white"/>
<path d="M9.95947 51.1114H12.8846V47.5549H13.8947L15.7886 51.1114H18.9662L16.7777 47.092C17.9246 46.5396 18.6084 45.4927 18.6084 43.9985C18.6084 41.7048 17.0039 40.3369 14.6101 40.3369H9.95947V51.1114ZM12.8846 45.2822V42.6728H13.9157C14.9416 42.6728 15.5571 43.0726 15.5571 43.9985C15.5571 44.9192 14.9416 45.2822 13.9157 45.2822H12.8846Z" fill="white"/>
<path d="M22.6542 51.1114L23.275 49.0491H26.8313L27.4521 51.1114H30.6087L27.0523 40.3369H23.054L19.4976 51.1114H22.6542ZM23.9379 46.8605L25.011 43.3041H25.0953L26.1684 46.8605H23.9379Z" fill="white"/>
<path d="M41.1989 44.3772C40.9675 41.7046 39.0104 40.1895 36.2958 40.1895C33.3917 40.1895 31.0979 42.1255 31.0979 45.724C31.0979 49.3066 33.3286 51.2584 36.2958 51.2584C39.4523 51.2584 41.0516 49.0699 41.1989 47.2391L38.2318 47.218C38.0845 48.1387 37.4321 48.7121 36.3589 48.7121C34.9332 48.7121 34.1072 47.702 34.1072 45.724C34.1072 43.851 34.9069 42.7358 36.3799 42.7358C37.5058 42.7358 38.1476 43.3986 38.2318 44.3772H41.1989Z" fill="white"/>
<path d="M42.2314 42.6938H45.4722V51.1114H48.3552V42.6938H51.596V40.3369H42.2314V42.6938Z" fill="white"/>
<path d="M55.6219 40.3369H52.6968V51.1114H55.6219V40.3369Z" fill="white"/>
<path d="M67.0671 44.3772C66.8356 41.7046 64.8785 40.1895 62.1639 40.1895C59.2598 40.1895 56.9661 42.1255 56.9661 45.724C56.9661 49.3066 59.1967 51.2584 62.1639 51.2584C65.3204 51.2584 66.9198 49.0699 67.0671 47.2391L64.0999 47.218C63.9526 48.1387 63.3003 48.7121 62.227 48.7121C60.8013 48.7121 59.9753 47.702 59.9753 45.724C59.9753 43.851 60.775 42.7358 62.2481 42.7358C63.3739 42.7358 64.0158 43.3986 64.0999 44.3772H67.0671Z" fill="white"/>
<path d="M74.7703 40.3369V46.9868C74.7703 47.9916 74.0496 48.7123 73.0447 48.7123C72.0399 48.7123 71.3192 47.9916 71.3192 46.9868V40.3369H68.394V47.2393C68.394 49.7014 70.2564 51.2376 73.0447 51.2376C75.8118 51.2376 77.6955 49.7014 77.6955 47.2393V40.3369H74.7703Z" fill="white"/>
<path d="M79.0859 40.3369V51.1114H81.9474V44.8403H82.0319L84.4311 51.0271H86.1563L88.5556 44.8824H88.6393V51.1114H91.5015V40.3369H87.8607L85.357 46.4397H85.2304L82.7259 40.3369H79.0859Z" fill="white"/>
<path d="M98.6377 51.1114L99.2585 49.0491H102.815L103.436 51.1114H106.593L103.036 40.3369H99.0378L95.4814 51.1114H98.6377ZM99.9214 46.8605L100.995 43.3041H101.079L102.153 46.8605H99.9214Z" fill="white"/>
<path d="M107.63 51.1114H110.556V47.5549H111.565L113.459 51.1114H116.637L114.448 47.092C115.596 46.5396 116.279 45.4927 116.279 43.9985C116.279 41.7048 114.675 40.3369 112.281 40.3369H107.63V51.1114ZM110.556 45.2822V42.6728H111.587C112.613 42.6728 113.228 43.0726 113.228 43.9985C113.228 44.9192 112.613 45.2822 111.587 45.2822H110.556Z" fill="white"/>
<path d="M117.231 42.6938H120.472V51.1114H123.355V42.6938H126.596V40.3369H117.231V42.6938Z" fill="white"/>
<path d="M137.645 43.8932H140.602C140.376 41.7309 138.413 40.1895 135.867 40.1895C132.963 40.1895 130.606 42.1886 130.606 45.745C130.606 49.1541 132.742 51.2584 135.888 51.2584C138.708 51.2584 140.728 49.5329 140.728 46.5867V45.0926H135.951V47.176H137.908C137.882 48.1124 137.219 48.7121 135.909 48.7121C134.394 48.7121 133.616 47.5969 133.616 45.7029C133.616 43.8352 134.457 42.7358 135.93 42.7358C136.845 42.7358 137.467 43.1566 137.645 43.8932Z" fill="white"/>
<path d="M144.558 51.1114L145.179 49.0491H148.736L149.356 51.1114H152.513L148.956 40.3369H144.958L141.401 51.1114H144.558ZM145.841 46.8605L146.915 43.3041H146.999L148.073 46.8605H145.841Z" fill="white"/>
<path d="M153.55 51.1114H160.832V48.7545H156.476V40.3369H153.55V51.1114Z" fill="white"/>
<path d="M162.014 51.1114H169.295V48.7545H164.939V40.3369H162.014V51.1114Z" fill="white"/>
<path d="M170.478 51.1114H178.221V48.7545H173.402V46.9026H177.843V44.5457H173.402V42.6938H178.242V40.3369H170.478V51.1114Z" fill="white"/>
<path d="M179.693 51.1114H182.619V47.5549H183.628L185.522 51.1114H188.7L186.511 47.092C187.659 46.5396 188.342 45.4927 188.342 43.9985C188.342 41.7048 186.738 40.3369 184.344 40.3369H179.693V51.1114ZM182.619 45.2822V42.6728H183.65C184.676 42.6728 185.291 43.0726 185.291 43.9985C185.291 44.9192 184.676 45.2822 183.65 45.2822H182.619Z" fill="white"/>
<path d="M188.641 40.3369L192.597 47.7233V51.1114H195.501V47.7233L199.457 40.3369H196.196L194.091 44.714H194.007L191.903 40.3369H188.641Z" fill="white"/>
<path d="M87.4075 1.48148C87.4075 0.663282 88.0704 0 88.889 0H109.63C110.448 0 111.111 0.663282 111.111 1.48148V22.2222C111.111 23.0404 110.448 23.7037 109.63 23.7037H88.889C88.0704 23.7037 87.4075 23.0404 87.4075 22.2222V1.48148Z" fill="#0278FE"/>
<path d="M111.111 4.44434H87.4075V5.92582H111.111V4.44434Z" fill="#2A2C2F"/>
<path d="M97.037 4.44434H95.5555V23.7036H97.037V4.44434Z" fill="#2A2C2F"/>
</g>
<defs>
<clipPath id="clip0_0_379">
<rect width="200" height="51.8519" fill="white"/>
</clipPath>
</defs>
</svg>
